<mxfile host="app.diagrams.net" modified="2023-02-21T14:56:55.531Z" agent="5.0 (X11)" etag="9UNQt_m9ms-SXeA5pbjm" version="20.8.21" type="github">
  <diagram name="Страница 1" id="-vdNu9-JhCNHS-4u0iuo">
    <mxGraphModel dx="2261" dy="720" grid="1" gridSize="10" guides="1" tooltips="1" connect="1" arrows="1" fold="1" page="1" pageScale="1" pageWidth="827" pageHeight="1169" math="0" shadow="0">
      <root>
        <mxCell id="0" />
        <mxCell id="1" parent="0" />
        <mxCell id="05JpvwoAGMNYo4gDBGhP-1" value="&lt;font style=&quot;font-size: 20px;&quot;&gt;Проектирование интернет-магазина одежды&lt;/font&gt;" style="text;html=1;align=center;verticalAlign=middle;resizable=0;points=[];autosize=1;strokeColor=none;fillColor=none;" vertex="1" parent="1">
          <mxGeometry x="214" y="80" width="400" height="40" as="geometry" />
        </mxCell>
        <mxCell id="05JpvwoAGMNYo4gDBGhP-2" value="" style="rounded=0;whiteSpace=wrap;html=1;fontSize=20;" vertex="1" parent="1">
          <mxGeometry x="-20" y="115" width="850" height="685" as="geometry" />
        </mxCell>
        <mxCell id="05JpvwoAGMNYo4gDBGhP-10" style="edgeStyle=orthogonalEdgeStyle;rounded=0;orthogonalLoop=1;jettySize=auto;html=1;fontSize=20;endArrow=block;endFill=0;endSize=10;" edge="1" parent="1">
          <mxGeometry relative="1" as="geometry">
            <mxPoint x="-135.5" y="385" as="sourcePoint" />
            <mxPoint x="-135.5" y="505" as="targetPoint" />
            <Array as="points">
              <mxPoint x="-135.5" y="425" />
              <mxPoint x="-135.5" y="425" />
            </Array>
          </mxGeometry>
        </mxCell>
        <mxCell id="05JpvwoAGMNYo4gDBGhP-3" value="&lt;div&gt;Покупатель&lt;/div&gt;&lt;div&gt;(авторизованный&lt;/div&gt;&lt;div&gt;пользователь)&lt;br&gt;&lt;/div&gt;" style="shape=umlActor;verticalLabelPosition=bottom;verticalAlign=top;html=1;outlineConnect=0;fontSize=20;" vertex="1" parent="1">
          <mxGeometry x="-150" y="235" width="30" height="60" as="geometry" />
        </mxCell>
        <mxCell id="05JpvwoAGMNYo4gDBGhP-4" value="&lt;div&gt;Посетитель &lt;br&gt;&lt;/div&gt;&lt;div&gt;сайта&lt;/div&gt;" style="shape=umlActor;verticalLabelPosition=bottom;verticalAlign=top;html=1;outlineConnect=0;fontSize=20;" vertex="1" parent="1">
          <mxGeometry x="-150" y="525" width="30" height="60" as="geometry" />
        </mxCell>
        <mxCell id="05JpvwoAGMNYo4gDBGhP-5" value="&lt;div&gt;Менеджер&lt;/div&gt;" style="shape=umlActor;verticalLabelPosition=bottom;verticalAlign=top;html=1;outlineConnect=0;fontSize=20;" vertex="1" parent="1">
          <mxGeometry x="920" y="235" width="30" height="60" as="geometry" />
        </mxCell>
        <mxCell id="05JpvwoAGMNYo4gDBGhP-6" value="Консультант" style="shape=umlActor;verticalLabelPosition=bottom;verticalAlign=top;html=1;outlineConnect=0;fontSize=20;" vertex="1" parent="1">
          <mxGeometry x="920" y="525" width="30" height="60" as="geometry" />
        </mxCell>
        <mxCell id="05JpvwoAGMNYo4gDBGhP-14" value="Посмотреть карточку товара" style="ellipse;whiteSpace=wrap;html=1;fontSize=20;" vertex="1" parent="1">
          <mxGeometry y="480" width="214" height="70" as="geometry" />
        </mxCell>
        <mxCell id="05JpvwoAGMNYo4gDBGhP-15" value="Управлять корзиной" style="ellipse;whiteSpace=wrap;html=1;fontSize=20;" vertex="1" parent="1">
          <mxGeometry x="10" y="670" width="210" height="60" as="geometry" />
        </mxCell>
        <mxCell id="05JpvwoAGMNYo4gDBGhP-19" value="Искать по сайту" style="ellipse;whiteSpace=wrap;html=1;fontSize=20;" vertex="1" parent="1">
          <mxGeometry y="385" width="210" height="60" as="geometry" />
        </mxCell>
        <mxCell id="05JpvwoAGMNYo4gDBGhP-25" value="" style="endArrow=none;html=1;rounded=0;fontSize=20;endSize=10;entryX=0;entryY=0.5;entryDx=0;entryDy=0;" edge="1" parent="1" target="05JpvwoAGMNYo4gDBGhP-19">
          <mxGeometry width="50" height="50" relative="1" as="geometry">
            <mxPoint x="-110" y="530" as="sourcePoint" />
            <mxPoint x="440" y="400" as="targetPoint" />
          </mxGeometry>
        </mxCell>
        <mxCell id="05JpvwoAGMNYo4gDBGhP-26" value="" style="endArrow=none;html=1;rounded=0;fontSize=20;endSize=10;entryX=0;entryY=0.5;entryDx=0;entryDy=0;" edge="1" parent="1" source="05JpvwoAGMNYo4gDBGhP-4" target="05JpvwoAGMNYo4gDBGhP-28">
          <mxGeometry width="50" height="50" relative="1" as="geometry">
            <mxPoint x="390" y="450" as="sourcePoint" />
            <mxPoint x="440" y="400" as="targetPoint" />
          </mxGeometry>
        </mxCell>
        <mxCell id="05JpvwoAGMNYo4gDBGhP-27" value="" style="endArrow=none;html=1;rounded=0;fontSize=20;endSize=10;entryX=0;entryY=0.5;entryDx=0;entryDy=0;" edge="1" parent="1" target="05JpvwoAGMNYo4gDBGhP-15">
          <mxGeometry width="50" height="50" relative="1" as="geometry">
            <mxPoint x="-130" y="590" as="sourcePoint" />
            <mxPoint x="440" y="400" as="targetPoint" />
          </mxGeometry>
        </mxCell>
        <mxCell id="05JpvwoAGMNYo4gDBGhP-28" value="Задать вопрос консультанту" style="ellipse;whiteSpace=wrap;html=1;fontSize=20;" vertex="1" parent="1">
          <mxGeometry x="10" y="600" width="210" height="60" as="geometry" />
        </mxCell>
        <mxCell id="05JpvwoAGMNYo4gDBGhP-29" value="" style="endArrow=none;html=1;rounded=0;fontSize=20;endSize=10;entryX=0;entryY=0.5;entryDx=0;entryDy=0;" edge="1" parent="1" target="05JpvwoAGMNYo4gDBGhP-14">
          <mxGeometry width="50" height="50" relative="1" as="geometry">
            <mxPoint x="-120" y="555" as="sourcePoint" />
            <mxPoint x="440" y="400" as="targetPoint" />
          </mxGeometry>
        </mxCell>
        <mxCell id="05JpvwoAGMNYo4gDBGhP-86" style="edgeStyle=orthogonalEdgeStyle;rounded=0;orthogonalLoop=1;jettySize=auto;html=1;exitX=0.5;exitY=0;exitDx=0;exitDy=0;entryX=0.5;entryY=1;entryDx=0;entryDy=0;dashed=1;dashPattern=8 8;strokeWidth=1;fontSize=15;endArrow=openThin;endFill=0;endSize=10;" edge="1" parent="1" source="05JpvwoAGMNYo4gDBGhP-30" target="05JpvwoAGMNYo4gDBGhP-41">
          <mxGeometry relative="1" as="geometry" />
        </mxCell>
        <mxCell id="05JpvwoAGMNYo4gDBGhP-87" style="edgeStyle=orthogonalEdgeStyle;rounded=0;orthogonalLoop=1;jettySize=auto;html=1;exitX=1;exitY=0;exitDx=0;exitDy=0;entryX=0.5;entryY=1;entryDx=0;entryDy=0;dashed=1;dashPattern=8 8;strokeWidth=1;fontSize=15;endArrow=openThin;endFill=0;endSize=10;" edge="1" parent="1" source="05JpvwoAGMNYo4gDBGhP-30" target="05JpvwoAGMNYo4gDBGhP-40">
          <mxGeometry relative="1" as="geometry">
            <Array as="points">
              <mxPoint x="488" y="230" />
              <mxPoint x="590" y="230" />
            </Array>
          </mxGeometry>
        </mxCell>
        <mxCell id="05JpvwoAGMNYo4gDBGhP-88" style="edgeStyle=orthogonalEdgeStyle;rounded=0;orthogonalLoop=1;jettySize=auto;html=1;exitX=0;exitY=0;exitDx=0;exitDy=0;entryX=0.5;entryY=1;entryDx=0;entryDy=0;dashed=1;dashPattern=8 8;strokeWidth=1;fontSize=15;endArrow=openThin;endFill=0;endSize=10;" edge="1" parent="1" source="05JpvwoAGMNYo4gDBGhP-30" target="05JpvwoAGMNYo4gDBGhP-39">
          <mxGeometry relative="1" as="geometry">
            <Array as="points">
              <mxPoint x="340" y="230" />
              <mxPoint x="259" y="230" />
            </Array>
          </mxGeometry>
        </mxCell>
        <mxCell id="05JpvwoAGMNYo4gDBGhP-30" value="Управлять заказом" style="ellipse;whiteSpace=wrap;html=1;fontSize=20;" vertex="1" parent="1">
          <mxGeometry x="309" y="220" width="210" height="60" as="geometry" />
        </mxCell>
        <mxCell id="05JpvwoAGMNYo4gDBGhP-31" value="" style="endArrow=none;html=1;rounded=0;fontSize=20;endSize=10;entryX=0;entryY=0.5;entryDx=0;entryDy=0;" edge="1" parent="1" source="05JpvwoAGMNYo4gDBGhP-3" target="05JpvwoAGMNYo4gDBGhP-30">
          <mxGeometry width="50" height="50" relative="1" as="geometry">
            <mxPoint x="390" y="450" as="sourcePoint" />
            <mxPoint x="440" y="400" as="targetPoint" />
          </mxGeometry>
        </mxCell>
        <mxCell id="05JpvwoAGMNYo4gDBGhP-32" style="edgeStyle=orthogonalEdgeStyle;rounded=0;orthogonalLoop=1;jettySize=auto;html=1;fontSize=20;endArrow=block;endFill=0;endSize=10;" edge="1" parent="1">
          <mxGeometry relative="1" as="geometry">
            <mxPoint x="934.5" y="385" as="sourcePoint" />
            <mxPoint x="934.5" y="505" as="targetPoint" />
            <Array as="points">
              <mxPoint x="935" y="440" />
              <mxPoint x="935" y="440" />
            </Array>
          </mxGeometry>
        </mxCell>
        <mxCell id="05JpvwoAGMNYo4gDBGhP-33" value="Управлять профилем" style="ellipse;whiteSpace=wrap;html=1;fontSize=20;" vertex="1" parent="1">
          <mxGeometry x="-20" y="290" width="210" height="60" as="geometry" />
        </mxCell>
        <mxCell id="05JpvwoAGMNYo4gDBGhP-34" value="" style="endArrow=none;html=1;rounded=0;fontSize=20;endSize=10;entryX=0;entryY=0.5;entryDx=0;entryDy=0;" edge="1" parent="1" source="05JpvwoAGMNYo4gDBGhP-3" target="05JpvwoAGMNYo4gDBGhP-33">
          <mxGeometry width="50" height="50" relative="1" as="geometry">
            <mxPoint x="390" y="450" as="sourcePoint" />
            <mxPoint x="440" y="400" as="targetPoint" />
          </mxGeometry>
        </mxCell>
        <mxCell id="05JpvwoAGMNYo4gDBGhP-35" value="Просмотреть активность посетителя сайта" style="ellipse;whiteSpace=wrap;html=1;fontSize=20;" vertex="1" parent="1">
          <mxGeometry x="560" y="620" width="240" height="70" as="geometry" />
        </mxCell>
        <mxCell id="05JpvwoAGMNYo4gDBGhP-36" value="" style="endArrow=none;html=1;rounded=0;fontSize=20;endSize=10;entryX=1;entryY=0.5;entryDx=0;entryDy=0;" edge="1" parent="1" source="05JpvwoAGMNYo4gDBGhP-6" target="05JpvwoAGMNYo4gDBGhP-28">
          <mxGeometry width="50" height="50" relative="1" as="geometry">
            <mxPoint x="390" y="450" as="sourcePoint" />
            <mxPoint x="440" y="400" as="targetPoint" />
          </mxGeometry>
        </mxCell>
        <mxCell id="05JpvwoAGMNYo4gDBGhP-37" value="" style="endArrow=none;html=1;rounded=0;fontSize=20;endSize=10;exitX=1;exitY=0.5;exitDx=0;exitDy=0;strokeWidth=1;" edge="1" parent="1" source="05JpvwoAGMNYo4gDBGhP-35" target="05JpvwoAGMNYo4gDBGhP-6">
          <mxGeometry width="50" height="50" relative="1" as="geometry">
            <mxPoint x="390" y="450" as="sourcePoint" />
            <mxPoint x="440" y="400" as="targetPoint" />
          </mxGeometry>
        </mxCell>
        <mxCell id="05JpvwoAGMNYo4gDBGhP-94" value="" style="edgeStyle=orthogonalEdgeStyle;rounded=0;orthogonalLoop=1;jettySize=auto;html=1;dashed=1;dashPattern=8 8;strokeWidth=1;fontSize=15;endArrow=openThin;endFill=0;endSize=4;" edge="1" parent="1" source="05JpvwoAGMNYo4gDBGhP-39" target="05JpvwoAGMNYo4gDBGhP-76">
          <mxGeometry relative="1" as="geometry" />
        </mxCell>
        <mxCell id="05JpvwoAGMNYo4gDBGhP-39" value="Оформить заказ" style="ellipse;whiteSpace=wrap;html=1;fontSize=20;" vertex="1" parent="1">
          <mxGeometry x="179" y="175" width="160" height="50" as="geometry" />
        </mxCell>
        <mxCell id="05JpvwoAGMNYo4gDBGhP-40" value="Отследить заказ" style="ellipse;whiteSpace=wrap;html=1;fontSize=20;" vertex="1" parent="1">
          <mxGeometry x="510" y="170" width="160" height="50" as="geometry" />
        </mxCell>
        <mxCell id="05JpvwoAGMNYo4gDBGhP-41" value="Отменить заказ" style="ellipse;whiteSpace=wrap;html=1;fontSize=20;" vertex="1" parent="1">
          <mxGeometry x="339" y="145" width="150" height="60" as="geometry" />
        </mxCell>
        <mxCell id="05JpvwoAGMNYo4gDBGhP-43" value="Отправить счёт" style="ellipse;whiteSpace=wrap;html=1;fontSize=20;" vertex="1" parent="1">
          <mxGeometry x="600" y="400" width="160" height="45" as="geometry" />
        </mxCell>
        <mxCell id="05JpvwoAGMNYo4gDBGhP-44" value="" style="endArrow=none;html=1;rounded=0;strokeWidth=1;fontSize=20;endSize=10;exitX=1;exitY=0.5;exitDx=0;exitDy=0;" edge="1" parent="1" source="05JpvwoAGMNYo4gDBGhP-43" target="05JpvwoAGMNYo4gDBGhP-5">
          <mxGeometry width="50" height="50" relative="1" as="geometry">
            <mxPoint x="390" y="450" as="sourcePoint" />
            <mxPoint x="440" y="400" as="targetPoint" />
          </mxGeometry>
        </mxCell>
        <mxCell id="05JpvwoAGMNYo4gDBGhP-45" value="Управлять персоналом" style="ellipse;whiteSpace=wrap;html=1;fontSize=20;" vertex="1" parent="1">
          <mxGeometry x="687" y="290" width="140" height="60" as="geometry" />
        </mxCell>
        <mxCell id="05JpvwoAGMNYo4gDBGhP-46" value="" style="endArrow=none;html=1;rounded=0;strokeWidth=1;fontSize=20;endSize=10;exitX=1;exitY=0.5;exitDx=0;exitDy=0;" edge="1" parent="1" source="05JpvwoAGMNYo4gDBGhP-45" target="05JpvwoAGMNYo4gDBGhP-5">
          <mxGeometry width="50" height="50" relative="1" as="geometry">
            <mxPoint x="390" y="450" as="sourcePoint" />
            <mxPoint x="440" y="400" as="targetPoint" />
          </mxGeometry>
        </mxCell>
        <mxCell id="05JpvwoAGMNYo4gDBGhP-48" value="Добавить консультанта" style="ellipse;whiteSpace=wrap;html=1;fontSize=20;" vertex="1" parent="1">
          <mxGeometry x="470" y="280" width="180" height="50" as="geometry" />
        </mxCell>
        <mxCell id="05JpvwoAGMNYo4gDBGhP-49" value="Удалить консультанта" style="ellipse;whiteSpace=wrap;html=1;fontSize=20;" vertex="1" parent="1">
          <mxGeometry x="500" y="340" width="180" height="50" as="geometry" />
        </mxCell>
        <mxCell id="05JpvwoAGMNYo4gDBGhP-50" value="Выбрать размер одежды" style="ellipse;whiteSpace=wrap;html=1;fontSize=20;" vertex="1" parent="1">
          <mxGeometry x="214" y="430" width="214" height="70" as="geometry" />
        </mxCell>
        <mxCell id="05JpvwoAGMNYo4gDBGhP-51" value="Выбрать цвет одежды" style="ellipse;whiteSpace=wrap;html=1;fontSize=20;" vertex="1" parent="1">
          <mxGeometry x="220" y="510" width="214" height="70" as="geometry" />
        </mxCell>
        <mxCell id="05JpvwoAGMNYo4gDBGhP-52" value="&lt;div&gt;Подтвердить,отменить заказ&lt;br&gt;&lt;/div&gt;" style="ellipse;whiteSpace=wrap;html=1;fontSize=20;" vertex="1" parent="1">
          <mxGeometry x="632" y="225" width="208" height="60" as="geometry" />
        </mxCell>
        <mxCell id="05JpvwoAGMNYo4gDBGhP-53" value="" style="endArrow=none;html=1;rounded=0;strokeWidth=1;fontSize=20;endSize=10;exitX=1;exitY=0.5;exitDx=0;exitDy=0;" edge="1" parent="1" source="05JpvwoAGMNYo4gDBGhP-52">
          <mxGeometry width="50" height="50" relative="1" as="geometry">
            <mxPoint x="390" y="450" as="sourcePoint" />
            <mxPoint x="930" y="265" as="targetPoint" />
          </mxGeometry>
        </mxCell>
        <mxCell id="05JpvwoAGMNYo4gDBGhP-54" value="Просмотреть профиль покупателя" style="ellipse;whiteSpace=wrap;html=1;fontSize=20;" vertex="1" parent="1">
          <mxGeometry x="600" y="490" width="240" height="70" as="geometry" />
        </mxCell>
        <mxCell id="05JpvwoAGMNYo4gDBGhP-55" value="Корзина" style="ellipse;whiteSpace=wrap;html=1;fontSize=20;" vertex="1" parent="1">
          <mxGeometry x="505" y="460" width="110" height="20" as="geometry" />
        </mxCell>
        <mxCell id="05JpvwoAGMNYo4gDBGhP-56" value="Заказы" style="ellipse;whiteSpace=wrap;html=1;fontSize=20;" vertex="1" parent="1">
          <mxGeometry x="470" y="490" width="110" height="20" as="geometry" />
        </mxCell>
        <mxCell id="05JpvwoAGMNYo4gDBGhP-57" value="Избранное" style="ellipse;whiteSpace=wrap;html=1;fontSize=20;" vertex="1" parent="1">
          <mxGeometry x="460" y="525" width="110" height="20" as="geometry" />
        </mxCell>
        <mxCell id="05JpvwoAGMNYo4gDBGhP-58" value="Данные" style="ellipse;whiteSpace=wrap;html=1;fontSize=20;" vertex="1" parent="1">
          <mxGeometry x="500" y="560" width="110" height="20" as="geometry" />
        </mxCell>
        <mxCell id="05JpvwoAGMNYo4gDBGhP-60" value="Добавить в избранное" style="ellipse;whiteSpace=wrap;html=1;fontSize=20;" vertex="1" parent="1">
          <mxGeometry x="186" y="270" width="196" height="40" as="geometry" />
        </mxCell>
        <mxCell id="05JpvwoAGMNYo4gDBGhP-61" value="Удалить из корзины" style="ellipse;whiteSpace=wrap;html=1;fontSize=20;" vertex="1" parent="1">
          <mxGeometry x="309" y="620" width="172" height="40" as="geometry" />
        </mxCell>
        <mxCell id="05JpvwoAGMNYo4gDBGhP-62" value="Добавить в корзину" style="ellipse;whiteSpace=wrap;html=1;fontSize=20;" vertex="1" parent="1">
          <mxGeometry x="210" y="750" width="172" height="40" as="geometry" />
        </mxCell>
        <mxCell id="05JpvwoAGMNYo4gDBGhP-63" value="Изменить количество" style="ellipse;whiteSpace=wrap;html=1;fontSize=20;" vertex="1" parent="1">
          <mxGeometry x="374" y="720" width="186" height="40" as="geometry" />
        </mxCell>
        <mxCell id="05JpvwoAGMNYo4gDBGhP-64" value="Изменить выбранный цвет/размер" style="ellipse;whiteSpace=wrap;html=1;fontSize=20;" vertex="1" parent="1">
          <mxGeometry x="308" y="670" width="242" height="40" as="geometry" />
        </mxCell>
        <mxCell id="05JpvwoAGMNYo4gDBGhP-68" value="Удалить из избранного" style="ellipse;whiteSpace=wrap;html=1;fontSize=20;" vertex="1" parent="1">
          <mxGeometry x="213" y="310" width="197" height="40" as="geometry" />
        </mxCell>
        <mxCell id="05JpvwoAGMNYo4gDBGhP-69" value="Указать информацию о себе" style="ellipse;whiteSpace=wrap;html=1;fontSize=20;" vertex="1" parent="1">
          <mxGeometry x="165" y="350" width="238" height="40" as="geometry" />
        </mxCell>
        <mxCell id="05JpvwoAGMNYo4gDBGhP-70" value="ФИО" style="ellipse;whiteSpace=wrap;html=1;fontSize=20;" vertex="1" parent="1">
          <mxGeometry x="399" y="380" width="110" height="20" as="geometry" />
        </mxCell>
        <mxCell id="05JpvwoAGMNYo4gDBGhP-71" value="Размер" style="ellipse;whiteSpace=wrap;html=1;fontSize=20;" vertex="1" parent="1">
          <mxGeometry x="382" y="405" width="110" height="20" as="geometry" />
        </mxCell>
        <mxCell id="05JpvwoAGMNYo4gDBGhP-73" value="Адрес" style="ellipse;whiteSpace=wrap;html=1;fontSize=20;" vertex="1" parent="1">
          <mxGeometry x="266" y="405" width="110" height="20" as="geometry" />
        </mxCell>
        <mxCell id="05JpvwoAGMNYo4gDBGhP-82" style="edgeStyle=orthogonalEdgeStyle;rounded=0;orthogonalLoop=1;jettySize=auto;html=1;strokeWidth=1;fontSize=15;endArrow=openThin;endFill=0;endSize=10;dashed=1;dashPattern=8 8;exitX=0.5;exitY=0;exitDx=0;exitDy=0;" edge="1" parent="1" source="05JpvwoAGMNYo4gDBGhP-76" target="05JpvwoAGMNYo4gDBGhP-75">
          <mxGeometry relative="1" as="geometry">
            <mxPoint x="50" y="80" as="sourcePoint" />
            <Array as="points">
              <mxPoint x="69" y="130" />
              <mxPoint x="748" y="130" />
            </Array>
          </mxGeometry>
        </mxCell>
        <mxCell id="05JpvwoAGMNYo4gDBGhP-75" value="Выдать скидку" style="ellipse;whiteSpace=wrap;html=1;fontSize=20;" vertex="1" parent="1">
          <mxGeometry x="668" y="155" width="160" height="50" as="geometry" />
        </mxCell>
        <mxCell id="05JpvwoAGMNYo4gDBGhP-76" value="Применить скидку" style="ellipse;whiteSpace=wrap;html=1;fontSize=20;" vertex="1" parent="1">
          <mxGeometry x="-11" y="170" width="160" height="50" as="geometry" />
        </mxCell>
        <mxCell id="05JpvwoAGMNYo4gDBGhP-78" value="" style="endArrow=none;html=1;rounded=0;strokeWidth=1;fontSize=20;endSize=10;entryX=1;entryY=0.5;entryDx=0;entryDy=0;" edge="1" parent="1" source="05JpvwoAGMNYo4gDBGhP-5" target="05JpvwoAGMNYo4gDBGhP-75">
          <mxGeometry width="50" height="50" relative="1" as="geometry">
            <mxPoint x="880" y="190" as="sourcePoint" />
            <mxPoint x="930" y="140" as="targetPoint" />
          </mxGeometry>
        </mxCell>
        <mxCell id="05JpvwoAGMNYo4gDBGhP-79" value="" style="endArrow=openThin;dashed=1;html=1;rounded=0;strokeWidth=1;fontSize=20;endSize=10;exitX=1;exitY=0.5;exitDx=0;exitDy=0;entryX=0;entryY=0.5;entryDx=0;entryDy=0;endFill=0;" edge="1" parent="1" source="05JpvwoAGMNYo4gDBGhP-76" target="05JpvwoAGMNYo4gDBGhP-39">
          <mxGeometry width="50" height="50" relative="1" as="geometry">
            <mxPoint x="149" y="190" as="sourcePoint" />
            <mxPoint x="199" y="140" as="targetPoint" />
          </mxGeometry>
        </mxCell>
        <mxCell id="05JpvwoAGMNYo4gDBGhP-80" value="&lt;font style=&quot;font-size: 15px;&quot;&gt;&quot;include&quot;&lt;/font&gt;" style="text;html=1;strokeColor=none;fillColor=none;align=center;verticalAlign=middle;whiteSpace=wrap;rounded=0;fontSize=20;" vertex="1" parent="1">
          <mxGeometry x="519" y="225" width="60" height="30" as="geometry" />
        </mxCell>
        <mxCell id="05JpvwoAGMNYo4gDBGhP-81" value="&lt;font style=&quot;font-size: 15px;&quot;&gt;&quot;extend&quot;&lt;/font&gt;" style="text;html=1;strokeColor=none;fillColor=none;align=center;verticalAlign=middle;whiteSpace=wrap;rounded=0;fontSize=20;" vertex="1" parent="1">
          <mxGeometry x="140" y="160" width="60" height="30" as="geometry" />
        </mxCell>
        <mxCell id="05JpvwoAGMNYo4gDBGhP-83" value="&lt;font style=&quot;font-size: 15px;&quot;&gt;&quot;extend&quot;&lt;/font&gt;" style="text;html=1;strokeColor=none;fillColor=none;align=center;verticalAlign=middle;whiteSpace=wrap;rounded=0;fontSize=20;" vertex="1" parent="1">
          <mxGeometry x="229" y="120" width="60" height="30" as="geometry" />
        </mxCell>
        <mxCell id="05JpvwoAGMNYo4gDBGhP-93" value="" style="endArrow=openThin;dashed=1;html=1;dashPattern=1 3;strokeWidth=1;rounded=0;fontSize=15;endSize=10;entryX=0;entryY=0.5;entryDx=0;entryDy=0;endFill=0;" edge="1" parent="1" target="05JpvwoAGMNYo4gDBGhP-50">
          <mxGeometry width="50" height="50" relative="1" as="geometry">
            <mxPoint x="183" y="490" as="sourcePoint" />
            <mxPoint x="220" y="425" as="targetPoint" />
          </mxGeometry>
        </mxCell>
        <mxCell id="05JpvwoAGMNYo4gDBGhP-95" value="" style="endArrow=openThin;dashed=1;html=1;dashPattern=1 3;strokeWidth=1;rounded=0;fontSize=15;endSize=10;exitX=1;exitY=1;exitDx=0;exitDy=0;entryX=0;entryY=0.5;entryDx=0;entryDy=0;endFill=0;" edge="1" parent="1" source="05JpvwoAGMNYo4gDBGhP-14" target="05JpvwoAGMNYo4gDBGhP-51">
          <mxGeometry width="50" height="50" relative="1" as="geometry">
            <mxPoint x="193" y="500" as="sourcePoint" />
            <mxPoint x="224" y="475" as="targetPoint" />
          </mxGeometry>
        </mxCell>
        <mxCell id="05JpvwoAGMNYo4gDBGhP-96" value="" style="endArrow=openThin;dashed=1;html=1;dashPattern=1 3;strokeWidth=1;rounded=0;fontSize=15;endSize=10;entryX=0;entryY=0.5;entryDx=0;entryDy=0;endFill=0;exitX=1;exitY=0.5;exitDx=0;exitDy=0;" edge="1" parent="1" source="05JpvwoAGMNYo4gDBGhP-33" target="05JpvwoAGMNYo4gDBGhP-69">
          <mxGeometry width="50" height="50" relative="1" as="geometry">
            <mxPoint x="193" y="500" as="sourcePoint" />
            <mxPoint x="224" y="475" as="targetPoint" />
          </mxGeometry>
        </mxCell>
        <mxCell id="05JpvwoAGMNYo4gDBGhP-97" value="" style="endArrow=openThin;dashed=1;html=1;dashPattern=1 3;strokeWidth=1;rounded=0;fontSize=15;endSize=10;entryX=0;entryY=0.5;entryDx=0;entryDy=0;endFill=0;exitX=1;exitY=0.5;exitDx=0;exitDy=0;" edge="1" parent="1" source="05JpvwoAGMNYo4gDBGhP-33" target="05JpvwoAGMNYo4gDBGhP-68">
          <mxGeometry width="50" height="50" relative="1" as="geometry">
            <mxPoint x="200" y="330" as="sourcePoint" />
            <mxPoint x="175" y="380" as="targetPoint" />
          </mxGeometry>
        </mxCell>
        <mxCell id="05JpvwoAGMNYo4gDBGhP-98" value="" style="endArrow=openThin;dashed=1;html=1;dashPattern=1 3;strokeWidth=1;rounded=0;fontSize=15;endSize=10;entryX=0;entryY=0.5;entryDx=0;entryDy=0;endFill=0;exitX=1;exitY=0.5;exitDx=0;exitDy=0;" edge="1" parent="1" source="05JpvwoAGMNYo4gDBGhP-33" target="05JpvwoAGMNYo4gDBGhP-60">
          <mxGeometry width="50" height="50" relative="1" as="geometry">
            <mxPoint x="200" y="330" as="sourcePoint" />
            <mxPoint x="223" y="340" as="targetPoint" />
          </mxGeometry>
        </mxCell>
        <mxCell id="05JpvwoAGMNYo4gDBGhP-99" value="" style="endArrow=openThin;dashed=1;html=1;dashPattern=1 3;strokeWidth=1;rounded=0;fontSize=15;endSize=10;entryX=1;entryY=0.5;entryDx=0;entryDy=0;endFill=0;exitX=0;exitY=0.5;exitDx=0;exitDy=0;" edge="1" parent="1" source="05JpvwoAGMNYo4gDBGhP-45" target="05JpvwoAGMNYo4gDBGhP-48">
          <mxGeometry width="50" height="50" relative="1" as="geometry">
            <mxPoint x="193" y="500" as="sourcePoint" />
            <mxPoint x="224" y="475" as="targetPoint" />
          </mxGeometry>
        </mxCell>
        <mxCell id="05JpvwoAGMNYo4gDBGhP-100" value="" style="endArrow=openThin;dashed=1;html=1;dashPattern=1 3;strokeWidth=1;rounded=0;fontSize=15;endSize=10;entryX=1;entryY=0.5;entryDx=0;entryDy=0;endFill=0;exitX=0.5;exitY=1;exitDx=0;exitDy=0;" edge="1" parent="1" source="05JpvwoAGMNYo4gDBGhP-45" target="05JpvwoAGMNYo4gDBGhP-49">
          <mxGeometry width="50" height="50" relative="1" as="geometry">
            <mxPoint x="690" y="350" as="sourcePoint" />
            <mxPoint x="660" y="315" as="targetPoint" />
          </mxGeometry>
        </mxCell>
        <mxCell id="05JpvwoAGMNYo4gDBGhP-101" value="" style="endArrow=openThin;dashed=1;html=1;dashPattern=1 3;strokeWidth=1;rounded=0;fontSize=15;endSize=10;entryX=0;entryY=0.25;entryDx=0;entryDy=0;endFill=0;exitX=1;exitY=0.5;exitDx=0;exitDy=0;entryPerimeter=0;" edge="1" parent="1" source="05JpvwoAGMNYo4gDBGhP-15" target="05JpvwoAGMNYo4gDBGhP-61">
          <mxGeometry width="50" height="50" relative="1" as="geometry">
            <mxPoint x="193" y="550" as="sourcePoint" />
            <mxPoint x="230" y="555" as="targetPoint" />
          </mxGeometry>
        </mxCell>
        <mxCell id="05JpvwoAGMNYo4gDBGhP-102" value="" style="endArrow=openThin;dashed=1;html=1;dashPattern=1 3;strokeWidth=1;rounded=0;fontSize=15;endSize=10;entryX=0;entryY=0.5;entryDx=0;entryDy=0;endFill=0;exitX=1;exitY=0.5;exitDx=0;exitDy=0;" edge="1" parent="1" source="05JpvwoAGMNYo4gDBGhP-15" target="05JpvwoAGMNYo4gDBGhP-64">
          <mxGeometry width="50" height="50" relative="1" as="geometry">
            <mxPoint x="230" y="710" as="sourcePoint" />
            <mxPoint x="230" y="650" as="targetPoint" />
          </mxGeometry>
        </mxCell>
        <mxCell id="05JpvwoAGMNYo4gDBGhP-104" value="" style="endArrow=openThin;dashed=1;html=1;dashPattern=1 3;strokeWidth=1;rounded=0;fontSize=15;endSize=10;entryX=0;entryY=0.5;entryDx=0;entryDy=0;endFill=0;exitX=0.5;exitY=1;exitDx=0;exitDy=0;" edge="1" parent="1" source="05JpvwoAGMNYo4gDBGhP-15" target="05JpvwoAGMNYo4gDBGhP-62">
          <mxGeometry width="50" height="50" relative="1" as="geometry">
            <mxPoint x="230" y="710" as="sourcePoint" />
            <mxPoint x="223" y="740" as="targetPoint" />
          </mxGeometry>
        </mxCell>
        <mxCell id="05JpvwoAGMNYo4gDBGhP-105" value="" style="endArrow=openThin;dashed=1;html=1;dashPattern=1 3;strokeWidth=1;rounded=0;fontSize=15;endSize=10;endFill=0;exitX=1;exitY=1;exitDx=0;exitDy=0;entryX=0;entryY=0.5;entryDx=0;entryDy=0;" edge="1" parent="1" source="05JpvwoAGMNYo4gDBGhP-15" target="05JpvwoAGMNYo4gDBGhP-63">
          <mxGeometry width="50" height="50" relative="1" as="geometry">
            <mxPoint x="125" y="740" as="sourcePoint" />
            <mxPoint x="220" y="780" as="targetPoint" />
          </mxGeometry>
        </mxCell>
        <mxCell id="05JpvwoAGMNYo4gDBGhP-106" value="" style="endArrow=openThin;dashed=1;html=1;dashPattern=1 3;strokeWidth=1;rounded=0;fontSize=15;endSize=10;entryX=0;entryY=0.5;entryDx=0;entryDy=0;endFill=0;exitX=0.5;exitY=1;exitDx=0;exitDy=0;" edge="1" parent="1" source="05JpvwoAGMNYo4gDBGhP-69" target="05JpvwoAGMNYo4gDBGhP-73">
          <mxGeometry width="50" height="50" relative="1" as="geometry">
            <mxPoint x="200" y="330" as="sourcePoint" />
            <mxPoint x="175" y="380" as="targetPoint" />
          </mxGeometry>
        </mxCell>
        <mxCell id="05JpvwoAGMNYo4gDBGhP-107" value="" style="endArrow=openThin;dashed=1;html=1;dashPattern=1 3;strokeWidth=1;rounded=0;fontSize=15;endSize=10;entryX=0;entryY=0;entryDx=0;entryDy=0;endFill=0;exitX=1;exitY=1;exitDx=0;exitDy=0;" edge="1" parent="1" source="05JpvwoAGMNYo4gDBGhP-69" target="05JpvwoAGMNYo4gDBGhP-71">
          <mxGeometry width="50" height="50" relative="1" as="geometry">
            <mxPoint x="294" y="400" as="sourcePoint" />
            <mxPoint x="276" y="425" as="targetPoint" />
          </mxGeometry>
        </mxCell>
        <mxCell id="05JpvwoAGMNYo4gDBGhP-108" value="" style="endArrow=openThin;dashed=1;html=1;dashPattern=1 3;strokeWidth=1;rounded=0;fontSize=15;endSize=10;entryX=0.5;entryY=0;entryDx=0;entryDy=0;endFill=0;exitX=1;exitY=0.5;exitDx=0;exitDy=0;" edge="1" parent="1" source="05JpvwoAGMNYo4gDBGhP-69" target="05JpvwoAGMNYo4gDBGhP-70">
          <mxGeometry width="50" height="50" relative="1" as="geometry">
            <mxPoint x="378" y="394" as="sourcePoint" />
            <mxPoint x="408" y="418" as="targetPoint" />
          </mxGeometry>
        </mxCell>
        <mxCell id="05JpvwoAGMNYo4gDBGhP-109" value="" style="endArrow=openThin;dashed=1;html=1;dashPattern=1 3;strokeWidth=1;rounded=0;fontSize=15;endSize=10;entryX=1;entryY=0.5;entryDx=0;entryDy=0;endFill=0;exitX=0;exitY=0;exitDx=0;exitDy=0;" edge="1" parent="1" source="05JpvwoAGMNYo4gDBGhP-54" target="05JpvwoAGMNYo4gDBGhP-55">
          <mxGeometry width="50" height="50" relative="1" as="geometry">
            <mxPoint x="650" y="470" as="sourcePoint" />
            <mxPoint x="701" y="480" as="targetPoint" />
          </mxGeometry>
        </mxCell>
        <mxCell id="05JpvwoAGMNYo4gDBGhP-110" value="" style="endArrow=openThin;dashed=1;html=1;dashPattern=1 3;strokeWidth=1;rounded=0;fontSize=15;endSize=10;entryX=1;entryY=0.5;entryDx=0;entryDy=0;endFill=0;exitX=0;exitY=0.5;exitDx=0;exitDy=0;" edge="1" parent="1" source="05JpvwoAGMNYo4gDBGhP-54" target="05JpvwoAGMNYo4gDBGhP-56">
          <mxGeometry width="50" height="50" relative="1" as="geometry">
            <mxPoint x="645" y="510" as="sourcePoint" />
            <mxPoint x="625" y="480" as="targetPoint" />
          </mxGeometry>
        </mxCell>
        <mxCell id="05JpvwoAGMNYo4gDBGhP-111" value="" style="endArrow=openThin;dashed=1;html=1;dashPattern=1 3;strokeWidth=1;rounded=0;fontSize=15;endSize=10;entryX=1;entryY=0.5;entryDx=0;entryDy=0;endFill=0;exitX=0;exitY=0.5;exitDx=0;exitDy=0;" edge="1" parent="1" source="05JpvwoAGMNYo4gDBGhP-54" target="05JpvwoAGMNYo4gDBGhP-57">
          <mxGeometry width="50" height="50" relative="1" as="geometry">
            <mxPoint x="610" y="535" as="sourcePoint" />
            <mxPoint x="609" y="510" as="targetPoint" />
          </mxGeometry>
        </mxCell>
        <mxCell id="05JpvwoAGMNYo4gDBGhP-112" value="" style="endArrow=openThin;dashed=1;html=1;dashPattern=1 3;strokeWidth=1;rounded=0;fontSize=15;endSize=10;entryX=1;entryY=0;entryDx=0;entryDy=0;endFill=0;exitX=0;exitY=1;exitDx=0;exitDy=0;" edge="1" parent="1" source="05JpvwoAGMNYo4gDBGhP-54" target="05JpvwoAGMNYo4gDBGhP-58">
          <mxGeometry width="50" height="50" relative="1" as="geometry">
            <mxPoint x="645" y="510" as="sourcePoint" />
            <mxPoint x="625" y="480" as="targetPoint" />
          </mxGeometry>
        </mxCell>
        <mxCell id="05JpvwoAGMNYo4gDBGhP-113" value="&lt;font style=&quot;font-size: 15px;&quot;&gt;&quot;include&quot;&lt;/font&gt;" style="text;html=1;strokeColor=none;fillColor=none;align=center;verticalAlign=middle;whiteSpace=wrap;rounded=0;fontSize=20;" vertex="1" parent="1">
          <mxGeometry x="266" y="220" width="60" height="30" as="geometry" />
        </mxCell>
        <mxCell id="05JpvwoAGMNYo4gDBGhP-114" value="&lt;font style=&quot;font-size: 15px;&quot;&gt;&quot;include&quot;&lt;/font&gt;" style="text;html=1;strokeColor=none;fillColor=none;align=center;verticalAlign=middle;whiteSpace=wrap;rounded=0;fontSize=20;" vertex="1" parent="1">
          <mxGeometry x="403" y="350" width="60" height="30" as="geometry" />
        </mxCell>
        <mxCell id="05JpvwoAGMNYo4gDBGhP-115" value="&lt;font style=&quot;font-size: 15px;&quot;&gt;&quot;include&quot;&lt;/font&gt;" style="text;html=1;strokeColor=none;fillColor=none;align=center;verticalAlign=middle;whiteSpace=wrap;rounded=0;fontSize=20;" vertex="1" parent="1">
          <mxGeometry x="690" y="350" width="60" height="30" as="geometry" />
        </mxCell>
        <mxCell id="05JpvwoAGMNYo4gDBGhP-116" value="&lt;font style=&quot;font-size: 15px;&quot;&gt;&quot;include&quot;&lt;/font&gt;" style="text;html=1;strokeColor=none;fillColor=none;align=center;verticalAlign=middle;whiteSpace=wrap;rounded=0;fontSize=20;" vertex="1" parent="1">
          <mxGeometry x="414" y="195" width="60" height="30" as="geometry" />
        </mxCell>
        <mxCell id="05JpvwoAGMNYo4gDBGhP-117" value="&lt;font style=&quot;font-size: 15px;&quot;&gt;&quot;include&quot;&lt;/font&gt;" style="text;html=1;strokeColor=none;fillColor=none;align=center;verticalAlign=middle;whiteSpace=wrap;rounded=0;fontSize=20;" vertex="1" parent="1">
          <mxGeometry x="650" y="285" width="60" height="30" as="geometry" />
        </mxCell>
        <mxCell id="05JpvwoAGMNYo4gDBGhP-118" value="&lt;font style=&quot;font-size: 15px;&quot;&gt;&quot;include&quot;&lt;/font&gt;" style="text;html=1;strokeColor=none;fillColor=none;align=center;verticalAlign=middle;whiteSpace=wrap;rounded=0;fontSize=20;" vertex="1" parent="1">
          <mxGeometry x="229" y="630" width="60" height="30" as="geometry" />
        </mxCell>
        <mxCell id="05JpvwoAGMNYo4gDBGhP-119" value="&lt;font style=&quot;font-size: 15px;&quot;&gt;&quot;include&quot;&lt;/font&gt;" style="text;html=1;strokeColor=none;fillColor=none;align=center;verticalAlign=middle;whiteSpace=wrap;rounded=0;fontSize=20;" vertex="1" parent="1">
          <mxGeometry x="246" y="660" width="60" height="30" as="geometry" />
        </mxCell>
        <mxCell id="05JpvwoAGMNYo4gDBGhP-120" value="&lt;font style=&quot;font-size: 15px;&quot;&gt;&quot;include&quot;&lt;/font&gt;" style="text;html=1;strokeColor=none;fillColor=none;align=center;verticalAlign=middle;whiteSpace=wrap;rounded=0;fontSize=20;" vertex="1" parent="1">
          <mxGeometry x="140" y="455" width="60" height="30" as="geometry" />
        </mxCell>
        <mxCell id="05JpvwoAGMNYo4gDBGhP-121" value="&lt;font style=&quot;font-size: 15px;&quot;&gt;&quot;include&quot;&lt;/font&gt;" style="text;html=1;strokeColor=none;fillColor=none;align=center;verticalAlign=middle;whiteSpace=wrap;rounded=0;fontSize=20;" vertex="1" parent="1">
          <mxGeometry x="153" y="540" width="60" height="30" as="geometry" />
        </mxCell>
        <mxCell id="05JpvwoAGMNYo4gDBGhP-122" value="&lt;font style=&quot;font-size: 15px;&quot;&gt;&quot;include&quot;&lt;/font&gt;" style="text;html=1;strokeColor=none;fillColor=none;align=center;verticalAlign=middle;whiteSpace=wrap;rounded=0;fontSize=20;" vertex="1" parent="1">
          <mxGeometry x="339" y="375" width="60" height="30" as="geometry" />
        </mxCell>
        <mxCell id="05JpvwoAGMNYo4gDBGhP-123" value="&lt;font style=&quot;font-size: 15px;&quot;&gt;&quot;include&quot;&lt;/font&gt;" style="text;html=1;strokeColor=none;fillColor=none;align=center;verticalAlign=middle;whiteSpace=wrap;rounded=0;fontSize=20;" vertex="1" parent="1">
          <mxGeometry x="550" y="530" width="60" height="30" as="geometry" />
        </mxCell>
        <mxCell id="05JpvwoAGMNYo4gDBGhP-124" value="&lt;font style=&quot;font-size: 15px;&quot;&gt;&quot;include&quot;&lt;/font&gt;" style="text;html=1;strokeColor=none;fillColor=none;align=center;verticalAlign=middle;whiteSpace=wrap;rounded=0;fontSize=20;" vertex="1" parent="1">
          <mxGeometry x="608" y="550" width="60" height="30" as="geometry" />
        </mxCell>
        <mxCell id="05JpvwoAGMNYo4gDBGhP-125" value="&lt;font style=&quot;font-size: 15px;&quot;&gt;&quot;include&quot;&lt;/font&gt;" style="text;html=1;strokeColor=none;fillColor=none;align=center;verticalAlign=middle;whiteSpace=wrap;rounded=0;fontSize=20;" vertex="1" parent="1">
          <mxGeometry x="580" y="480" width="60" height="30" as="geometry" />
        </mxCell>
        <mxCell id="05JpvwoAGMNYo4gDBGhP-126" value="&lt;font style=&quot;font-size: 15px;&quot;&gt;&quot;include&quot;&lt;/font&gt;" style="text;html=1;strokeColor=none;fillColor=none;align=center;verticalAlign=middle;whiteSpace=wrap;rounded=0;fontSize=20;" vertex="1" parent="1">
          <mxGeometry x="620" y="470" width="60" height="30" as="geometry" />
        </mxCell>
        <mxCell id="05JpvwoAGMNYo4gDBGhP-127" value="&lt;font style=&quot;font-size: 15px;&quot;&gt;&quot;include&quot;&lt;/font&gt;" style="text;html=1;strokeColor=none;fillColor=none;align=center;verticalAlign=middle;whiteSpace=wrap;rounded=0;fontSize=20;" vertex="1" parent="1">
          <mxGeometry x="186" y="295" width="60" height="30" as="geometry" />
        </mxCell>
        <mxCell id="05JpvwoAGMNYo4gDBGhP-128" value="&lt;font style=&quot;font-size: 15px;&quot;&gt;&quot;include&quot;&lt;/font&gt;" style="text;html=1;strokeColor=none;fillColor=none;align=center;verticalAlign=middle;whiteSpace=wrap;rounded=0;fontSize=20;" vertex="1" parent="1">
          <mxGeometry x="119" y="340" width="60" height="30" as="geometry" />
        </mxCell>
        <mxCell id="05JpvwoAGMNYo4gDBGhP-129" value="&lt;font style=&quot;font-size: 15px;&quot;&gt;&quot;include&quot;&lt;/font&gt;" style="text;html=1;strokeColor=none;fillColor=none;align=center;verticalAlign=middle;whiteSpace=wrap;rounded=0;fontSize=20;" vertex="1" parent="1">
          <mxGeometry x="126" y="275" width="60" height="30" as="geometry" />
        </mxCell>
        <mxCell id="05JpvwoAGMNYo4gDBGhP-130" value="&lt;font style=&quot;font-size: 15px;&quot;&gt;&quot;include&quot;&lt;/font&gt;" style="text;html=1;strokeColor=none;fillColor=none;align=center;verticalAlign=middle;whiteSpace=wrap;rounded=0;fontSize=20;" vertex="1" parent="1">
          <mxGeometry x="220" y="380" width="60" height="30" as="geometry" />
        </mxCell>
        <mxCell id="05JpvwoAGMNYo4gDBGhP-134" value="&lt;font style=&quot;font-size: 15px;&quot;&gt;&quot;include&quot;&lt;/font&gt;" style="text;html=1;strokeColor=none;fillColor=none;align=center;verticalAlign=middle;whiteSpace=wrap;rounded=0;fontSize=20;" vertex="1" parent="1">
          <mxGeometry x="266" y="700" width="60" height="30" as="geometry" />
        </mxCell>
        <mxCell id="05JpvwoAGMNYo4gDBGhP-135" value="&lt;font style=&quot;font-size: 15px;&quot;&gt;&quot;include&quot;&lt;/font&gt;" style="text;html=1;strokeColor=none;fillColor=none;align=center;verticalAlign=middle;whiteSpace=wrap;rounded=0;fontSize=20;" vertex="1" parent="1">
          <mxGeometry x="100" y="750" width="60" height="30" as="geometry" />
        </mxCell>
      </root>
    </mxGraphModel>
  </diagram>
</mxfile>
